P2
#test comment
5 5
255
1 0 32 0 1 0 0 64 0 0 255 170 
96 170 255 0 0 64 0 0 1 0 32 0 
1 